<?xml version="1.0" encoding="UTF-8"?>
<svg width="602px" height="90px" viewBox="0 0 602 90" version="1.1" xmlns="http://www.w3.org/2000/svg" xmlns:xlink="http://www.w3.org/1999/xlink">
    <!-- Generator: Sketch 42 (36781) - http://www.bohemiancoding.com/sketch -->
    <title>header text</title>
    <desc>Created with Sketch.</desc>
    <defs></defs>
    <g id="Page-1" stroke="none" stroke-width="1" fill="none" fill-rule="evenodd">
        <g id="Big-Logo" transform="translate(-419.000000, -225.000000)" fill="#FFFFFF">
            <g id="header-text" transform="translate(419.000000, 225.000000)">
                <path d="M2.50503289,27.0389915 L21.07,27.0389915 L21.07,27.4064523 C21.07,30.2440806 21.9611095,32.3416484 23.7433553,33.6992187 C25.525601,35.0567891 28.44646,35.7355641 32.5060197,35.7355641 C35.6249498,35.7355641 38.125007,35.332382 40.0062664,34.5260056 C41.8875259,33.7196292 42.8281414,32.6427756 42.8281414,31.2954126 C42.8281414,30.4379997 42.4815989,29.6775676 41.7885033,29.0140934 C41.0954077,28.3506192 40.0929095,27.733087 38.7809786,27.1614784 C37.4690477,26.5898699 35.8477235,26.0335806 33.9169572,25.4925939 C31.986191,24.9516072 29.7831703,24.3544894 27.3078289,23.7012225 C25.6245968,23.272516 23.9537665,22.8540232 22.2952878,22.4457313 C20.6368091,22.0374395 19.0154849,21.6138431 17.4312664,21.1749294 C15.847048,20.7360156 14.3123594,20.2613835 12.8271546,19.7510187 C11.3419498,19.2406539 9.9805325,18.6588468 8.74286184,18.0055799 C6.91110926,17.0256794 5.59919804,15.9284116 4.80708882,14.7137434 C4.01497959,13.4990752 3.61893092,12.1262145 3.61893092,10.5951201 C3.61893092,9.00278196 4.21300393,7.55336769 5.40116776,6.24683383 C6.5893316,4.94029996 8.19827932,3.82261783 10.2280592,2.8937539 C12.2578391,1.96488998 14.6588842,1.25038999 17.4312664,0.750232494 C20.2036487,0.250074997 23.1987668,0 26.4167105,0 C30.575284,0 34.1149689,0.347042853 37.0358717,1.04113897 C39.9567745,1.73523509 42.654856,2.86822793 45.1301974,4.44015149 L45.1301974,0.888030299 L61.690148,0.888030299 L61.690148,13.5348066 L43.4222204,13.5348066 L43.4222204,13.1673458 C43.4222204,10.6767656 42.6548761,8.83947993 41.1201645,7.65543361 C39.5854529,6.47138729 36.9616304,5.87937301 33.2486184,5.87937301 C30.2782088,5.87937301 27.9390464,6.24172658 26.2310609,6.96644458 C24.5230753,7.69116259 23.6690954,8.65573758 23.6690954,9.86019849 C23.6690954,10.7584405 24.1641562,11.5341834 25.1542928,12.1874503 C26.1444293,12.8407172 27.5182231,13.4480422 29.2757155,14.0094435 C31.0332078,14.5708448 33.1248398,15.1373412 35.5506743,15.7089498 C37.9765088,16.2805583 40.6498374,16.9134012 43.5707401,17.6074973 C46.9867112,18.424081 49.9570762,19.2406524 52.4819243,20.0572361 C55.0067725,20.8738197 57.1107811,21.7720483 58.7940132,22.7519487 C60.4772453,23.7318491 61.7396504,24.8444276 62.5812664,26.0897177 C63.4228825,27.3350078 63.8436842,28.7946292 63.8436842,30.4686258 C63.8436842,34.3473982 61.7025461,37.2921589 57.4202056,39.3029962 C53.1378651,41.3138334 46.862969,42.319237 38.5953289,42.319237 C30.0801548,42.319237 23.7433761,40.9208584 19.5848026,38.1240594 L19.5848026,41.8292892 L2.50503289,41.8292892 L2.50503289,27.0389915 Z M112.780937,35.7355641 L119.167286,35.7355641 L119.167286,6.70615984 L112.780937,6.70615984 L112.780937,0.888030299 L149.242533,0.888030299 L149.242533,6.70615984 L140.257089,6.70615984 L140.257089,35.7355641 L157.188339,35.7355641 L157.188339,27.3452089 L176.792944,27.3452089 L176.792944,41.8292892 L112.780937,41.8292892 L112.780937,35.7355641 Z M224.39352,35.7355641 L230.779868,35.7355641 L230.779868,6.70615984 L224.39352,6.70615984 L224.39352,0.888030299 L289.296645,0.888030299 L289.296645,13.1061023 L271.102977,13.1061023 L271.102977,6.70615984 L251.869671,6.70615984 L251.869671,17.4850104 L272.588174,17.4850104 L272.588174,24.2830354 L251.869671,24.2830354 L251.869671,35.7355641 L271.102977,35.7355641 L271.102977,28.8456738 L289.296645,28.8456738 L289.296645,41.8292892 L224.39352,41.8292892 L224.39352,35.7355641 Z M372.913257,35.7355641 L372.913257,41.8292892 L339.199276,41.8292892 L339.199276,35.7355641 L345.585625,35.7355641 L345.585625,6.70615984 L339.199276,6.70615984 L339.199276,0.888030299 L372.913257,0.888030299 L372.913257,6.70615984 L366.675428,6.70615984 L366.675428,35.7355641 L372.913257,35.7355641 Z M466.77773,37.7565986 C464.797457,39.3285221 462.062246,40.5380685 458.572015,41.3852741 C455.081784,42.2324796 451.133673,42.6560761 446.727566,42.6560761 C444.846306,42.6560761 443.014581,42.5693154 441.232336,42.3957913 C439.45009,42.2222673 437.766883,41.9772959 436.182664,41.6608697 C434.598446,41.3444435 433.150393,40.9667793 431.838462,40.5278655 C430.526531,40.0889518 429.400268,39.6041125 428.459638,39.0733331 C427.122954,38.3384078 426.07095,37.5473543 425.303594,36.7001487 C424.536238,35.8529432 423.954541,34.9445075 423.558487,33.9748144 C423.162432,33.0051213 422.914902,31.9639927 422.815888,30.8513974 C422.716875,29.7388022 422.667368,28.5496701 422.667368,27.2839654 L422.667368,15.1271368 C422.667368,10.0847327 424.573353,6.30298628 428.385378,3.7817842 C432.197404,1.26058213 438.237146,0 446.504786,0 C450.712866,0 454.561964,0.423596424 458.052196,1.27080198 C461.542427,2.11800753 464.450909,3.36838252 466.77773,5.02196445 L466.77773,0.888030299 L483.486201,0.888030299 L483.486201,14.7290543 L464.178635,14.7290543 L464.178635,13.5348066 C464.178635,11.064641 463.411291,9.23756248 461.876579,8.05351616 C460.341867,6.86946984 457.817057,6.27745556 454.302072,6.27745556 C452.272292,6.27745556 450.576709,6.44587342 449.215271,6.78271418 C447.853834,7.11955494 446.7647,7.64011922 445.947837,8.34442263 C445.130975,9.04872605 444.549278,9.9316439 444.20273,10.9932027 C443.856182,12.0547614 443.682911,13.3000328 443.682911,14.7290543 L443.682911,28.9681608 C443.682911,30.2338655 443.843806,31.3311333 444.1656,32.2599972 C444.487395,33.1888612 445.031962,33.964604 445.799317,34.587249 C446.566673,35.2098941 447.618678,35.6743191 448.955362,35.980538 C450.292046,36.2867568 451.975253,36.439864 454.005033,36.439864 C457.222977,36.439864 459.723034,35.8886783 461.50528,34.7862903 C463.287525,33.6839024 464.178635,32.0609667 464.178635,29.9174345 L464.178635,26.518422 L457.049688,26.518422 L457.049688,20.7002925 L489.872549,20.7002925 L489.872549,26.518422 L484.377319,26.518422 L484.377319,41.8292892 L466.77773,41.8292892 L466.77773,37.7565986 Z M580.395329,13.1061023 C580.395329,10.6971805 579.454713,8.90582697 577.573454,7.73198795 C575.692195,6.55814892 572.919854,5.97123822 569.256349,5.97123822 C561.879832,5.97123822 558.191628,8.34950247 558.191628,13.1061023 L558.191628,29.6112172 C558.191628,34.3678171 561.879832,36.7460813 569.256349,36.7460813 C572.919854,36.7460813 575.692195,36.154067 577.573454,34.9700207 C579.454713,33.7859744 580.395329,31.9997244 580.395329,29.6112172 L580.395329,13.1061023 Z M601.485132,28.6007 C601.485132,33.2960561 598.799427,36.8226239 593.427936,39.1805092 C588.056445,41.5383946 579.99933,42.7173195 569.256349,42.7173195 C558.513367,42.7173195 550.481005,41.5383946 545.159021,39.1805092 C539.837038,36.8226239 537.176086,33.2960561 537.176086,28.6007 L537.176086,14.1166196 C537.176086,9.42126349 539.837038,5.89469567 545.159021,3.53681033 C550.481005,1.17892499 558.513367,0 569.256349,0 C579.900316,0 587.932678,1.17892499 593.353676,3.53681033 C598.774673,5.89469567 601.485132,9.42126349 601.485132,14.1166196 L601.485132,28.6007 Z" id="SLEIGO"></path>
                <path d="M23.2878947,77.7802817 C23.2118523,77.3999981 23.0502644,77.0862688 22.8031263,76.8390845 C22.5559882,76.5919002 22.147266,76.4683099 21.5769474,76.4683099 L10.9690737,76.4683099 L10.9690737,81.7732394 L29.2762105,81.7732394 C29.5803805,81.7732394 29.8085045,81.668663 29.9605895,81.459507 C30.1126744,81.2503511 30.2267365,80.7845107 30.3027789,80.0619718 L30.9871579,80.0619718 L30.9871579,89.8161972 L30.3027789,89.8161972 C30.2267365,89.3218285 30.1126744,89.0176062 29.9605895,88.9035211 C29.8085045,88.789436 29.5803805,88.7323944 29.2762105,88.7323944 L0.817452632,88.7323944 L0.817452632,88.0478873 C1.53985624,87.9718306 1.98659914,87.8482403 2.15769474,87.6771127 C2.32879033,87.5059851 2.41433684,87.2873253 2.41433684,87.0211268 L2.41433684,60.4394366 C2.41433684,60.1732381 2.32879033,59.9545783 2.15769474,59.7834507 C1.98659914,59.6123231 1.53985624,59.4887328 0.817452632,59.4126761 L0.817452632,58.728169 L29.2762105,58.728169 C29.5803805,58.728169 29.8085045,58.6235926 29.9605895,58.4144366 C30.1126744,58.2052806 30.2267365,57.777468 30.3027789,57.1309859 L30.9871579,57.1309859 L30.9871579,67.056338 L30.3027789,67.056338 C30.2267365,66.4098559 30.1126744,65.9820433 29.9605895,65.7728873 C29.8085045,65.5637313 29.5803805,65.4591549 29.2762105,65.4591549 L10.9690737,65.4591549 L10.9690737,70.193662 L21.5769474,70.193662 C22.147266,70.193662 22.5559882,70.0700717 22.8031263,69.8228873 C23.0502644,69.575703 23.2118523,69.2619737 23.2878947,68.8816901 L23.9722737,68.8816901 L23.9722737,77.7802817 L23.2878947,77.7802817 Z M59.4649263,60.4394366 C59.4649263,60.1732381 59.3793798,59.9545783 59.2082842,59.7834507 C59.0371886,59.6123231 58.5904457,59.4887328 57.8680421,59.4126761 L57.8680421,58.728169 L71.6126526,58.728169 L71.6126526,59.4126761 C70.9662915,59.4507044 70.5385589,59.5362669 70.3294421,59.6693662 C70.1203253,59.8024655 70.0157684,59.9640836 70.0157684,60.1542254 C70.0157684,60.2302821 70.2629028,60.5725322 70.7571789,61.1809859 C71.2514551,61.7894397 71.8978065,62.5499954 72.6962526,63.4626761 C73.4946987,64.3753567 74.3976897,65.3926 75.4052526,66.5144366 C76.4128156,67.6362732 77.4298686,68.758093 78.4564421,69.8799296 C79.4830157,71.0017662 80.4715531,72.0665443 81.4220842,73.0742958 C82.3726153,74.0820473 83.1900597,74.9471795 83.8744421,75.6697183 L83.8744421,60.4394366 C83.8744421,59.7929545 83.475225,59.4507044 82.6767789,59.4126761 L82.6767789,58.728169 L93.1135579,58.728169 L93.1135579,59.4126761 C92.3911543,59.4887328 91.9444114,59.6123231 91.7733158,59.7834507 C91.6022202,59.9545783 91.5166737,60.1732381 91.5166737,60.4394366 L91.5166737,87.0211268 C91.5166737,87.2873253 91.6022202,87.5059851 91.7733158,87.6771127 C91.9444114,87.8482403 92.3911543,87.9718306 93.1135579,88.0478873 L93.1135579,88.7323944 L82.2775579,88.7323944 L82.2775579,88.0478873 C82.8098553,88.0478873 83.1615465,87.9908456 83.3326421,87.8767606 C83.5037377,87.7626755 83.5892842,87.6105643 83.5892842,87.4204225 C83.5892842,87.3063375 83.5322532,87.1637332 83.4181895,86.9926056 C83.3041257,86.821478 83.0569914,86.5267627 82.6767789,86.1084507 C82.2965665,85.6901388 81.7357616,85.0912011 80.9943474,84.3116197 C80.2529331,83.5320384 79.2739008,82.4862742 78.0572211,81.1742958 C76.8405413,79.8623174 75.3387247,78.2271225 73.5517263,76.268662 C71.7647279,74.3102015 69.6165599,71.9239577 67.1071579,69.1098592 L67.1071579,87.0211268 C67.1071579,87.2873253 67.1927044,87.5059851 67.3638,87.6771127 C67.5348956,87.8482403 67.9816385,87.9718306 68.7040421,88.0478873 L68.7040421,88.7323944 L57.8680421,88.7323944 L57.8680421,88.0478873 C58.5904457,87.9718306 59.0371886,87.8482403 59.2082842,87.6771127 C59.3793798,87.5059851 59.4649263,87.2873253 59.4649263,87.0211268 L59.4649263,60.4394366 Z M128.149958,88.0478873 C128.872362,87.9718306 129.319104,87.8482403 129.4902,87.6771127 C129.661296,87.5059851 129.746842,87.2873253 129.746842,87.0211268 L129.746842,65.6873239 L119.937411,65.6873239 C119.633241,65.6873239 119.405117,65.7919004 119.253032,66.0010563 C119.100947,66.2102123 118.986885,66.6380249 118.910842,67.284507 L118.226463,67.284507 L118.226463,57.1309859 L118.910842,57.1309859 C118.986885,57.777468 119.100947,58.2052806 119.253032,58.4144366 C119.405117,58.6235926 119.633241,58.728169 119.937411,58.728169 L148.111011,58.728169 C148.41518,58.728169 148.643305,58.6235926 148.795389,58.4144366 C148.947474,58.2052806 149.061536,57.777468 149.137579,57.1309859 L149.821958,57.1309859 L149.821958,67.284507 L149.137579,67.284507 C149.061536,66.6380249 148.947474,66.2102123 148.795389,66.0010563 C148.643305,65.7919004 148.41518,65.6873239 148.111011,65.6873239 L138.301579,65.6873239 L138.301579,87.0211268 C138.301579,87.2873253 138.387125,87.5059851 138.558221,87.6771127 C138.729317,87.8482403 139.17606,87.9718306 139.898463,88.0478873 L139.898463,88.7323944 L128.149958,88.7323944 L128.149958,88.0478873 Z M197.5764,77.7802817 C197.500358,77.3999981 197.33877,77.0862688 197.091632,76.8390845 C196.844494,76.5919002 196.435771,76.4683099 195.865453,76.4683099 L185.257579,76.4683099 L185.257579,81.7732394 L203.564716,81.7732394 C203.868886,81.7732394 204.09701,81.668663 204.249095,81.459507 C204.40118,81.2503511 204.515242,80.7845107 204.591284,80.0619718 L205.275663,80.0619718 L205.275663,89.8161972 L204.591284,89.8161972 C204.515242,89.3218285 204.40118,89.0176062 204.249095,88.9035211 C204.09701,88.789436 203.868886,88.7323944 203.564716,88.7323944 L175.105958,88.7323944 L175.105958,88.0478873 C175.828362,87.9718306 176.275104,87.8482403 176.4462,87.6771127 C176.617296,87.5059851 176.702842,87.2873253 176.702842,87.0211268 L176.702842,60.4394366 C176.702842,60.1732381 176.617296,59.9545783 176.4462,59.7834507 C176.275104,59.6123231 175.828362,59.4887328 175.105958,59.4126761 L175.105958,58.728169 L203.564716,58.728169 C203.868886,58.728169 204.09701,58.6235926 204.249095,58.4144366 C204.40118,58.2052806 204.515242,57.777468 204.591284,57.1309859 L205.275663,57.1309859 L205.275663,67.056338 L204.591284,67.056338 C204.515242,66.4098559 204.40118,65.9820433 204.249095,65.7728873 C204.09701,65.5637313 203.868886,65.4591549 203.564716,65.4591549 L185.257579,65.4591549 L185.257579,70.193662 L195.865453,70.193662 C196.435771,70.193662 196.844494,70.0700717 197.091632,69.8228873 C197.33877,69.575703 197.500358,69.2619737 197.5764,68.8816901 L198.260779,68.8816901 L198.260779,77.7802817 L197.5764,77.7802817 Z M251.889474,71.3915493 C253.562408,71.3915493 254.712534,71.07782 255.339884,70.4503521 C255.967235,69.8228842 256.280905,69.0908493 256.280905,68.2542254 C256.280905,67.4176015 255.967235,66.6855665 255.339884,66.0580986 C254.712534,65.4306307 253.562408,65.1169014 251.889474,65.1169014 L242.308168,65.1169014 L242.308168,71.3915493 L251.889474,71.3915493 Z M242.308168,87.0211268 C242.308168,87.2873253 242.393715,87.5059851 242.564811,87.6771127 C242.735906,87.8482403 243.182649,87.9718306 243.905053,88.0478873 L243.905053,88.7323944 L232.156547,88.7323944 L232.156547,88.0478873 C232.878951,87.9718306 233.325694,87.8482403 233.496789,87.6771127 C233.667885,87.5059851 233.753432,87.2873253 233.753432,87.0211268 L233.753432,60.4394366 C233.753432,60.1732381 233.667885,59.9545783 233.496789,59.7834507 C233.325694,59.6123231 232.878951,59.4887328 232.156547,59.4126761 L232.156547,58.728169 L253.030105,58.728169 C257.250463,58.728169 260.311127,59.4982317 262.212189,61.0383803 C264.113252,62.5785288 265.063768,64.9647726 265.063768,68.1971831 C265.063768,70.8211399 264.29385,72.8746405 262.753989,74.3577465 C261.214129,75.8408525 259.26557,76.9056306 256.908253,77.5521127 L263.637979,87.0211268 C264.094234,87.7056372 264.645534,88.0478873 265.291895,88.0478873 L265.291895,88.7323944 L253.429326,88.7323944 L253.429326,88.0478873 C254.265794,88.009859 254.684021,87.6676089 254.684021,87.0211268 C254.684021,86.94507 254.531938,86.6788755 254.227768,86.2225352 C253.923598,85.7661949 253.543392,85.214792 253.087137,84.5683099 C252.630882,83.9218278 252.127108,83.2278206 251.5758,82.4862676 C251.024492,81.7447146 250.492203,81.0316936 249.978916,80.3471831 C249.465629,79.6626726 249.018886,79.054228 248.638674,78.521831 C248.258461,77.989434 248.011327,77.62817 247.897263,77.4380282 L242.308168,77.4380282 L242.308168,87.0211268 Z M311.164295,71.6767606 C312.761187,71.6767606 313.930323,71.410566 314.671737,70.878169 C315.413151,70.345772 315.783853,69.4711328 315.783853,68.2542254 C315.783853,67.1514029 315.413151,66.3528194 314.671737,65.8584507 C313.930323,65.364082 312.761187,65.1169014 311.164295,65.1169014 L302.495495,65.1169014 L302.495495,71.6767606 L311.164295,71.6767606 Z M302.495495,87.0211268 C302.495495,87.2873253 302.581041,87.5059851 302.752137,87.6771127 C302.923232,87.8482403 303.369975,87.9718306 304.092379,88.0478873 L304.092379,88.7323944 L292.343874,88.7323944 L292.343874,88.0478873 C293.066277,87.9718306 293.51302,87.8482403 293.684116,87.6771127 C293.855211,87.5059851 293.940758,87.2873253 293.940758,87.0211268 L293.940758,60.4394366 C293.940758,60.1732381 293.855211,59.9545783 293.684116,59.7834507 C293.51302,59.6123231 293.066277,59.4887328 292.343874,59.4126761 L292.343874,58.728169 L312.761179,58.728169 C314.548177,58.728169 316.126035,58.9848566 317.4948,59.4982394 C318.863565,60.0116223 320.004185,60.7056294 320.916695,61.5802817 C321.829205,62.454934 322.513577,63.4721773 322.969832,64.6320423 C323.426086,65.7919072 323.654211,66.9992895 323.654211,68.2542254 C323.654211,69.5091612 323.426086,70.7165435 322.969832,71.8764085 C322.513577,73.0362734 321.829205,74.0440098 320.916695,74.8996479 C320.004185,75.755286 318.863565,76.4397862 317.4948,76.953169 C316.126035,77.4665519 314.548177,77.7232394 312.761179,77.7232394 L302.495495,77.7232394 L302.495495,87.0211268 Z M369.127389,71.3915493 C370.800324,71.3915493 371.950449,71.07782 372.5778,70.4503521 C373.205151,69.8228842 373.518821,69.0908493 373.518821,68.2542254 C373.518821,67.4176015 373.205151,66.6855665 372.5778,66.0580986 C371.950449,65.4306307 370.800324,65.1169014 369.127389,65.1169014 L359.546084,65.1169014 L359.546084,71.3915493 L369.127389,71.3915493 Z M359.546084,87.0211268 C359.546084,87.2873253 359.631631,87.5059851 359.802726,87.6771127 C359.973822,87.8482403 360.420565,87.9718306 361.142968,88.0478873 L361.142968,88.7323944 L349.394463,88.7323944 L349.394463,88.0478873 C350.116867,87.9718306 350.56361,87.8482403 350.734705,87.6771127 C350.905801,87.5059851 350.991347,87.2873253 350.991347,87.0211268 L350.991347,60.4394366 C350.991347,60.1732381 350.905801,59.9545783 350.734705,59.7834507 C350.56361,59.6123231 350.116867,59.4887328 349.394463,59.4126761 L349.394463,58.728169 L370.268021,58.728169 C374.488379,58.728169 377.549043,59.4982317 379.450105,61.0383803 C381.351167,62.5785288 382.301684,64.9647726 382.301684,68.1971831 C382.301684,70.8211399 381.531766,72.8746405 379.991905,74.3577465 C378.452045,75.8408525 376.503485,76.9056306 374.146168,77.5521127 L380.875895,87.0211268 C381.33215,87.7056372 381.883449,88.0478873 382.529811,88.0478873 L382.529811,88.7323944 L370.667242,88.7323944 L370.667242,88.0478873 C371.503709,88.009859 371.921937,87.6676089 371.921937,87.0211268 C371.921937,86.94507 371.769854,86.6788755 371.465684,86.2225352 C371.161514,85.7661949 370.781308,85.214792 370.325053,84.5683099 C369.868798,83.9218278 369.365024,83.2278206 368.813716,82.4862676 C368.262408,81.7447146 367.730118,81.0316936 367.216832,80.3471831 C366.703545,79.6626726 366.256802,79.054228 365.876589,78.521831 C365.496377,77.989434 365.249243,77.62817 365.135179,77.4380282 L359.546084,77.4380282 L359.546084,87.0211268 Z M410.209137,88.0478873 C410.93154,87.9718306 411.378283,87.8482403 411.549379,87.6771127 C411.720475,87.5059851 411.806021,87.2873253 411.806021,87.0211268 L411.806021,60.4394366 C411.806021,60.1732381 411.720475,59.9545783 411.549379,59.7834507 C411.378283,59.6123231 410.93154,59.4887328 410.209137,59.4126761 L410.209137,58.728169 L421.957642,58.728169 L421.957642,59.4126761 C421.235238,59.4887328 420.788496,59.6123231 420.6174,59.7834507 C420.446304,59.9545783 420.360758,60.1732381 420.360758,60.4394366 L420.360758,87.0211268 C420.360758,87.2873253 420.446304,87.5059851 420.6174,87.6771127 C420.788496,87.8482403 421.235238,87.9718306 421.957642,88.0478873 L421.957642,88.7323944 L410.209137,88.7323944 L410.209137,88.0478873 Z M453.286989,77.1528169 C453.210947,77.3809871 453.172926,77.7802788 453.172926,78.3507042 C453.172926,78.7309878 453.524618,79.1588004 454.228011,79.6341549 C454.931404,80.1095094 455.8439,80.5563359 456.965526,80.9746479 C458.087153,81.3929598 459.370351,81.7447169 460.815158,82.0299296 C462.259965,82.3151423 463.723761,82.4577465 465.206589,82.4577465 C468.058183,82.4577465 470.14932,82.1250033 471.480063,81.459507 C472.810807,80.7940108 473.476168,79.8338091 473.476168,78.5788732 C473.476168,77.8943628 472.896353,77.4095085 471.736705,77.1242958 C470.577057,76.8390831 469.122767,76.6109163 467.373789,76.4397887 C465.624812,76.2686611 463.742789,76.0785222 461.727663,75.8693662 C459.712537,75.6602102 457.830514,75.2799323 456.081537,74.7285211 C454.33256,74.1771099 452.878269,73.3785264 451.718621,72.3327465 C450.558973,71.2869666 449.979158,69.8514176 449.979158,68.0260563 C449.979158,66.5809787 450.311839,65.26902 450.977211,64.0901408 C451.642582,62.9112617 452.574089,61.9035253 453.771758,61.0669014 C454.969427,60.2302775 456.423718,59.5742982 458.134674,59.0989437 C459.84563,58.6235892 461.746663,58.3859155 463.837832,58.3859155 C465.776915,58.3859155 467.582897,58.5095058 469.255832,58.7566901 C470.928766,59.0038745 472.411572,59.2795759 473.704295,59.5838028 C474.997017,59.8880297 476.080606,60.1637312 476.955095,60.4109155 C477.829583,60.6580998 478.456924,60.7816901 478.837137,60.7816901 C479.217349,60.7816901 479.521515,60.6961276 479.749642,60.525 C479.97777,60.3538724 480.186883,60.1542265 480.376989,59.9260563 L481.004337,60.1542254 L477.069158,68.0830986 L476.384779,67.7408451 L476.384779,67.1133803 C476.384779,66.771125 476.014077,66.419368 475.272663,66.0580986 C474.531249,65.6968292 473.590237,65.373593 472.4496,65.0883803 C471.308963,64.8031676 470.03527,64.5654939 468.628484,64.3753521 C467.221698,64.1852103 465.852954,64.0901408 464.522211,64.0901408 C462.05083,64.0901408 460.320889,64.3753493 459.332337,64.9457746 C458.343785,65.5162 457.849516,66.1246447 457.849516,66.7711268 C457.849516,67.4176089 458.191702,67.9024632 458.876084,68.2257042 C459.560467,68.5489453 460.453952,68.786619 461.556568,68.9387324 C462.659184,69.0908458 463.913867,69.2144361 465.320653,69.309507 C466.727439,69.4045779 468.172224,69.5471821 469.655053,69.7373239 C471.137881,69.9274657 472.582667,70.1936603 473.989453,70.5359155 C475.396239,70.8781707 476.650921,71.3820389 477.753537,72.0475352 C478.856153,72.7130315 479.749639,73.5876706 480.434021,74.6714789 C481.118403,75.7552871 481.460589,77.1147806 481.460589,78.75 C481.460589,80.0049359 481.20395,81.240839 480.690663,82.4577465 C480.177376,83.674654 479.302901,84.7679529 478.067211,85.7376761 C476.83152,86.7073992 475.177621,87.4774619 473.105463,88.0478873 C471.033305,88.6183127 468.457405,88.9035211 465.377684,88.9035211 C462.982346,88.9035211 460.919724,88.7894378 459.189758,88.5612676 C457.459791,88.3330975 455.98649,88.057396 454.769811,87.7341549 C453.553131,87.4109139 452.593109,87.1161985 451.889716,86.85 C451.186323,86.5838015 450.663539,86.4507042 450.321347,86.4507042 C450.09322,86.4507042 449.893611,86.5267598 449.722516,86.6788732 C449.55142,86.8309867 449.370822,87.0021117 449.180716,87.1922535 L448.496337,87.0211268 L452.716674,76.8676056 L453.286989,77.1528169 Z M530.298632,77.7802817 C530.222589,77.3999981 530.061001,77.0862688 529.813863,76.8390845 C529.566725,76.5919002 529.158003,76.4683099 528.587684,76.4683099 L517.979811,76.4683099 L517.979811,81.7732394 L536.286947,81.7732394 C536.591117,81.7732394 536.819241,81.668663 536.971326,81.459507 C537.123411,81.2503511 537.237473,80.7845107 537.313516,80.0619718 L537.997895,80.0619718 L537.997895,89.8161972 L537.313516,89.8161972 C537.237473,89.3218285 537.123411,89.0176062 536.971326,88.9035211 C536.819241,88.789436 536.591117,88.7323944 536.286947,88.7323944 L507.828189,88.7323944 L507.828189,88.0478873 C508.550593,87.9718306 508.997336,87.8482403 509.168432,87.6771127 C509.339527,87.5059851 509.425074,87.2873253 509.425074,87.0211268 L509.425074,60.4394366 C509.425074,60.1732381 509.339527,59.9545783 509.168432,59.7834507 C508.997336,59.6123231 508.550593,59.4887328 507.828189,59.4126761 L507.828189,58.728169 L536.286947,58.728169 C536.591117,58.728169 536.819241,58.6235926 536.971326,58.4144366 C537.123411,58.2052806 537.237473,57.777468 537.313516,57.1309859 L537.997895,57.1309859 L537.997895,67.056338 L537.313516,67.056338 C537.237473,66.4098559 537.123411,65.9820433 536.971326,65.7728873 C536.819241,65.5637313 536.591117,65.4591549 536.286947,65.4591549 L517.979811,65.4591549 L517.979811,70.193662 L528.587684,70.193662 C529.158003,70.193662 529.566725,70.0700717 529.813863,69.8228873 C530.061001,69.575703 530.222589,69.2619737 530.298632,68.8816901 L530.983011,68.8816901 L530.983011,77.7802817 L530.298632,77.7802817 Z M567.388168,77.1528169 C567.312126,77.3809871 567.274105,77.7802788 567.274105,78.3507042 C567.274105,78.7309878 567.625796,79.1588004 568.329189,79.6341549 C569.032582,80.1095094 569.945079,80.5563359 571.066705,80.9746479 C572.188332,81.3929598 573.47153,81.7447169 574.916337,82.0299296 C576.361144,82.3151423 577.82494,82.4577465 579.307768,82.4577465 C582.159362,82.4577465 584.250499,82.1250033 585.581242,81.459507 C586.911986,80.7940108 587.577347,79.8338091 587.577347,78.5788732 C587.577347,77.8943628 586.997532,77.4095085 585.837884,77.1242958 C584.678236,76.8390831 583.223946,76.6109163 581.474968,76.4397887 C579.725991,76.2686611 577.843968,76.0785222 575.828842,75.8693662 C573.813716,75.6602102 571.931693,75.2799323 570.182716,74.7285211 C568.433739,74.1771099 566.979448,73.3785264 565.8198,72.3327465 C564.660152,71.2869666 564.080337,69.8514176 564.080337,68.0260563 C564.080337,66.5809787 564.413018,65.26902 565.078389,64.0901408 C565.743761,62.9112617 566.675268,61.9035253 567.872937,61.0669014 C569.070606,60.2302775 570.524897,59.5742982 572.235853,59.0989437 C573.946809,58.6235892 575.847842,58.3859155 577.939011,58.3859155 C579.878094,58.3859155 581.684076,58.5095058 583.357011,58.7566901 C585.029945,59.0038745 586.512751,59.2795759 587.805474,59.5838028 C589.098196,59.8880297 590.181785,60.1637312 591.056274,60.4109155 C591.930762,60.6580998 592.558103,60.7816901 592.938316,60.7816901 C593.318528,60.7816901 593.622694,60.6961276 593.850821,60.525 C594.078949,60.3538724 594.288062,60.1542265 594.478168,59.9260563 L595.105516,60.1542254 L591.170337,68.0830986 L590.485958,67.7408451 L590.485958,67.1133803 C590.485958,66.771125 590.115256,66.419368 589.373842,66.0580986 C588.632428,65.6968292 587.691416,65.373593 586.550779,65.0883803 C585.410142,64.8031676 584.136449,64.5654939 582.729663,64.3753521 C581.322877,64.1852103 579.954133,64.0901408 578.623389,64.0901408 C576.152009,64.0901408 574.422068,64.3753493 573.433516,64.9457746 C572.444963,65.5162 571.950695,66.1246447 571.950695,66.7711268 C571.950695,67.4176089 572.292881,67.9024632 572.977263,68.2257042 C573.661646,68.5489453 574.555131,68.786619 575.657747,68.9387324 C576.760363,69.0908458 578.015046,69.2144361 579.421832,69.309507 C580.828618,69.4045779 582.273403,69.5471821 583.756232,69.7373239 C585.23906,69.9274657 586.683846,70.1936603 588.090632,70.5359155 C589.497418,70.8781707 590.7521,71.3820389 591.854716,72.0475352 C592.957332,72.7130315 593.850818,73.5876706 594.5352,74.6714789 C595.219582,75.7552871 595.561768,77.1147806 595.561768,78.75 C595.561768,80.0049359 595.305129,81.240839 594.791842,82.4577465 C594.278555,83.674654 593.40408,84.7679529 592.168389,85.7376761 C590.932699,86.7073992 589.2788,87.4774619 587.206642,88.0478873 C585.134484,88.6183127 582.558584,88.9035211 579.478863,88.9035211 C577.083525,88.9035211 575.020903,88.7894378 573.290937,88.5612676 C571.56097,88.3330975 570.087669,88.057396 568.870989,87.7341549 C567.65431,87.4109139 566.694288,87.1161985 565.990895,86.85 C565.287502,86.5838015 564.764718,86.4507042 564.422526,86.4507042 C564.194399,86.4507042 563.99479,86.5267598 563.823695,86.6788732 C563.652599,86.8309867 563.472001,87.0021117 563.281895,87.1922535 L562.597516,87.0211268 L566.817853,76.8676056 L567.388168,77.1528169 Z" id="ENTERPRISES"></path>
            </g>
        </g>
    </g>
</svg>