<?xml version="1.0" encoding="UTF-8"?>
<svg width="687px" height="686px" viewBox="0 0 687 686" version="1.1" xmlns="http://www.w3.org/2000/svg" xmlns:xlink="http://www.w3.org/1999/xlink">
    <!-- Generator: Sketch 42 (36781) - http://www.bohemiancoding.com/sketch -->
    <title>logo2-color</title>
    <desc>Created with Sketch.</desc>
    <defs></defs>
    <g id="Page-1" stroke="none" stroke-width="1" fill="none" fill-rule="evenodd">
        <g id="Big-Logo" transform="translate(-377.000000, -169.000000)">
            <g id="logo2-color" transform="translate(377.000000, 169.000000)">
                <path d="M627.511876,273.69821 C626.523543,269.80702 625.462487,265.933304 624.309914,262.079109 C623.442487,259.163093 622.535379,256.256812 621.584914,253.36315 L593.061312,273.69821 L88.1045181,273.69821 L65.4326246,257.534952 C63.9881654,262.108536 62.6465781,266.710841 61.4367027,271.352481 C61.2337468,272.133975 61.0330957,272.915867 60.8349069,273.69821 L2.15125627,273.69821 C15.8956075,208.538627 48.47218,147.16689 97.5772321,99.5398662 C145.321458,53.2439028 207.010351,19.6527428 273.048823,6.8486831 C344.144946,-6.93375991 416.570509,0.311948299 483.2159,28.1178853 C544.81809,53.7827226 597.793372,97.9517658 635.046584,152.344205 C660.209126,189.068969 677.570127,230.507467 686.613016,273.69821 L627.511876,273.69821 Z M2.05196271,414.056266 L61.3565881,414.056266 C64.6058882,426.42285 68.5685626,438.594876 73.3583088,450.453343 C74.0085782,452.069803 77.5200331,460.208817 74.0952808,452.39593 C74.8322528,454.111646 75.5981257,455.827362 76.3928994,457.543077 C77.9679965,460.960329 79.5864448,464.39176 81.2915957,467.709756 C84.6729967,474.430824 88.2422533,481.038456 92.114969,487.475934 C96.2911437,494.452233 100.684075,501.244198 105.380465,507.86601 C107.533579,510.914595 109.744496,513.963181 112.013213,516.92669 C112.981392,518.188662 117.114216,523.293271 112.099916,517.082664 C113.270401,518.557329 114.440886,519.989455 115.640272,521.435761 C125.596619,533.417411 136.34774,544.732627 147.980338,555.111997 C152.69397,559.31777 157.503939,563.420418 162.451155,567.373109 L213.217482,414.056266 L467.945528,414.056266 L520.141827,571.72413 C521.103303,571.023134 522.060214,570.31625 523.012388,569.603414 C525.497863,567.760083 524.992098,568.072031 521.639597,570.638515 C522.622227,569.844465 523.633757,569.121312 524.601936,568.341441 C526.09033,567.164545 527.535374,566.001829 528.994867,564.810754 C531.899404,562.428603 534.78949,560.032273 537.578423,557.522507 C543.214092,552.559693 548.690805,547.469264 553.921862,542.123605 C559.629782,536.338382 565.135396,530.425543 570.352002,524.229116 C571.710343,522.570118 579.383522,513.013157 574.094664,519.819301 C576.377832,516.869972 578.675451,513.892284 580.871916,510.829518 C589.990139,498.153074 598.284687,484.909451 605.394299,471.027751 C607.402909,467.128398 609.353717,463.200685 611.188922,459.216255 C611.998146,457.514718 612.764019,455.799003 613.529892,454.083287 C616.217672,447.986116 611.044418,460.12374 613.587694,453.941492 C616.463329,446.936835 619.180011,439.847101 621.520981,432.643931 C623.538194,426.504958 625.382702,420.305626 627.033444,414.056268 L686.04374,414.056266 C681.041091,436.916464 673.695716,459.284513 664.149754,480.967559 C609.729428,604.725956 479.357635,687.222102 342.136336,685.974309 C273.727993,685.378771 204.943939,665.385721 148.457202,627.186234 C91.2190422,588.462106 47.3186311,535.430896 20.5275309,472.502416 C12.444803,453.504406 6.3076915,433.929815 2.05196271,414.056266 Z M617.429725,241.561419 C617.07438,240.619006 616.713758,239.6784 616.347726,238.739705 C615.581853,236.768759 610.740959,225.325928 614.237963,233.294789 C612.749569,229.834999 611.174472,226.403567 609.541573,223.014675 C602.735419,208.991181 594.989988,195.364712 586.160774,182.475575 C583.718652,178.87399 581.218727,175.314944 578.603199,171.812615 C577.490515,170.323771 576.363382,168.820747 575.221798,167.346083 C571.190127,162.128038 579.253468,172.323076 575.106194,167.218468 C570.366453,161.419065 565.511108,155.747278 560.395655,150.302362 C549.731236,138.944608 538.329846,128.281648 526.07588,118.554533 C524.775341,117.519432 517.72353,112.202131 524.529684,117.250022 C523.041289,116.129844 521.523994,114.995486 520.021149,113.917847 C516.928757,111.70585 513.865265,109.536391 510.729522,107.452009 C504.472485,103.269066 498.070944,99.2420974 491.524898,95.4845383 C484.400835,91.415031 477.132268,87.5582156 469.704746,84.0275281 C466.236643,82.3968892 462.78299,80.7946093 459.285985,79.2915857 C457.76869,78.6393302 451.555004,76.1295643 459.12703,79.1923294 C457.364078,78.4975355 455.615576,77.7602032 453.809272,77.0795887 C438.795273,71.3510836 423.362212,66.5726028 407.611242,63.1411715 C399.302244,61.3261996 390.920993,59.7522787 382.481941,58.5895623 C391.556812,59.8515349 378.565874,58.1783577 376.369409,57.9656657 C372.38109,57.58282 368.37832,57.2566923 364.390001,57.0156413 C359.447487,56.7315855 354.496194,56.5447499 349.542033,56.4631106 L410.819238,241.561419 L617.429725,241.561419 Z M331.575242,56.6422385 C325.703161,56.8607859 319.837094,57.2407787 313.986896,57.7955121 C311.342467,58.0507425 308.712488,58.2917934 306.068059,58.6179212 C304.377359,58.8164338 297.470052,59.823176 305.880203,58.6179212 C301.964136,59.1709205 298.06252,59.7806376 294.189804,60.4754315 C286.502175,61.8791989 278.843446,63.4814788 271.27142,65.4240659 C263.150277,67.5368067 255.101387,69.8622394 247.1681,72.5705178 C243.526591,73.7899521 239.913983,75.0661042 236.315826,76.4415126 C234.538423,77.1079476 232.746569,77.8027416 230.969166,78.5258944 C224.697679,81.0498398 237.009446,75.9168723 230.810211,78.5826123 C216.273077,84.8215783 202.155006,92.0389276 188.730555,100.348096 C181.794347,104.644475 174.973744,109.125187 168.384347,113.946206 C166.881502,115.038025 165.364207,116.144023 163.861362,117.278381 C170.277353,112.414823 165.002946,116.441792 163.760209,117.434355 C160.812321,119.759788 157.893334,122.113579 155.046599,124.552448 C143.168344,134.676588 131.954809,145.56642 121.695002,157.27866 C118.833817,160.568297 115.987082,163.872113 113.270401,167.275185 C109.137577,172.422332 117.157567,162.156397 113.154797,167.402801 C112.013213,168.891645 110.88608,170.366309 109.773396,171.869333 C105.322663,177.881428 101.030885,184.021137 97.0425662,190.331001 C88.6613158,203.560444 81.1615419,217.328708 74.8611537,231.621612 C73.6184166,234.471685 73.8496235,233.918686 75.5258735,230.047691 C75.0201084,231.210407 74.5432442,232.373124 74.0663799,233.53584 C73.3583088,235.294094 72.6502377,237.038169 71.9710674,238.810602 C71.6235407,239.727296 71.2769805,240.64399 70.9331358,241.561419 L270.332142,241.561419 L331.575242,56.6422385 Z M171.596539,574.169974 C174.620621,576.286182 177.659633,578.374541 180.768367,580.408169 C193.961611,588.986747 207.747323,596.757095 222.096601,603.350548 C224.39422,604.414008 226.706289,605.477468 229.047259,606.48421 C230.535653,607.122286 236.763789,609.660411 229.177313,606.569287 C232.732119,608.043952 236.301375,609.41936 239.899533,610.723871 C247.153649,613.361252 254.465568,615.800121 261.89309,617.884503 C269.999782,620.167397 278.207627,622.237599 286.473274,623.896597 C290.331539,624.61975 294.189804,625.371262 298.06252,626.009338 C299.998878,626.321286 301.949686,626.619055 303.900494,626.916824 C310.822251,627.895207 297.123242,626.094415 304.073899,626.959362 C320.735247,628.944488 337.541099,629.795256 354.31805,629.242257 C363.01721,628.916129 371.673018,628.36313 380.343277,627.413105 C382.294086,627.172054 384.259344,626.973542 386.239053,626.675773 C377.814452,627.781772 384.750659,626.874286 386.412459,626.590696 C390.314075,625.980979 394.17234,625.342903 398.045056,624.577212 C413.89718,621.500267 429.590348,617.374042 444.835554,611.957485 C449.06953,610.468641 453.274606,608.89472 457.392979,607.249902 C463.664466,604.711777 451.381599,609.816385 457.566384,607.150645 C459.314886,606.399134 461.063388,605.675981 462.81189,604.89611 C469.704746,601.748268 476.554251,598.444452 483.259251,594.842867 C493.498133,589.304467 503.498876,583.275352 513.102631,576.697795 L340.59014,453.700441 L171.596539,574.169974 Z" id="Combined-Shape" fill="#D83939" fill-rule="nonzero"></path>
                <path d="M1.83807254,330.670684 L26.1408648,330.670684 L26.1408648,331.200181 C26.1408648,335.289093 27.3073872,338.311607 29.6404669,340.267813 C31.9735466,342.224019 35.7971477,343.202107 41.1113849,343.202107 C45.1942744,343.202107 48.4670177,342.621138 50.9297129,341.459181 C53.3924082,340.297224 54.6237374,338.745519 54.6237374,336.804021 C54.6237374,335.568523 54.1700898,334.47277 53.262781,333.516729 C52.3554722,332.560688 51.0431346,331.670848 49.3257286,330.847183 C47.6083227,330.023517 45.4859001,329.221926 42.9583971,328.442385 C40.430894,327.662844 37.5469915,326.80242 34.306603,325.861088 C32.1031388,325.243339 29.9159094,324.640307 27.7448491,324.051974 C25.5737888,323.463641 23.4513662,322.853255 21.3775175,322.220798 C19.3036689,321.58834 17.2946581,320.904414 15.350425,320.168998 C13.4061919,319.433582 11.624005,318.59522 10.0038107,317.653888 C7.60592325,316.24189 5.8885431,314.660769 4.85161878,312.910479 C3.81469446,311.16019 3.29624007,309.181951 3.29624007,306.975703 C3.29624007,304.681205 4.07392165,302.592656 5.62930813,300.709991 C7.18469461,298.827326 9.29091555,297.21679 11.9480341,295.878333 C14.6051527,294.539876 17.7482824,293.510309 21.3775175,292.789602 C25.0067527,292.068894 28.9275639,291.708546 33.140069,291.708546 C38.5839217,291.708546 43.2176077,292.208621 47.0412662,293.208787 C50.8649246,294.208952 54.3968951,295.841551 57.6372836,298.106632 L57.6372836,292.988163 L79.3153743,292.988163 L79.3153743,311.211677 L55.4014267,311.211677 L55.4014267,310.68218 C55.4014267,307.093351 54.3969213,304.445894 52.3878805,302.739729 C50.3788396,301.033564 46.9440793,300.180494 42.0834965,300.180494 C38.1950303,300.180494 35.1329091,300.702632 32.8970411,301.746922 C30.661173,302.791213 29.5432557,304.181128 29.5432557,305.916709 C29.5432557,307.211041 30.1913237,308.328857 31.4874791,309.270189 C32.7836345,310.211521 34.5820232,311.086653 36.882699,311.895611 C39.1833748,312.704568 41.9214621,313.520867 45.0970428,314.344533 C48.2726235,315.168199 51.7721906,316.080101 55.5958491,317.080266 C60.0675852,318.256932 63.9559931,319.43358 67.2611893,320.610245 C70.5663856,321.78691 73.3206745,323.081223 75.5241387,324.493221 C77.7276029,325.90522 79.3801762,327.508402 80.4819083,329.302817 C81.5836404,331.097232 82.1344982,333.20049 82.1344982,335.612654 C82.1344982,341.201814 79.3316042,345.4451 73.7257321,348.342639 C68.11986,351.240177 59.9055983,352.688925 49.0827007,352.688925 C37.9357643,352.688925 29.6404941,350.673915 24.1966414,346.643837 L24.1966414,351.982929 L1.83807254,351.982929 L1.83807254,330.670684 Z M126.287811,343.202107 L134.647972,343.202107 L134.647972,301.371862 L126.287811,301.371862 L126.287811,292.988163 L174.018495,292.988163 L174.018495,301.371862 L162.255944,301.371862 L162.255944,343.202107 L184.42009,343.202107 L184.42009,331.111931 L210.083839,331.111931 L210.083839,351.982929 L126.287811,351.982929 L126.287811,343.202107 Z M252.487351,343.202107 L260.847511,343.202107 L260.847511,301.371862 L252.487351,301.371862 L252.487351,292.988163 L337.449913,292.988163 L337.449913,310.593931 L313.633176,310.593931 L313.633176,301.371862 L288.455484,301.371862 L288.455484,316.903768 L315.5774,316.903768 L315.5774,326.699458 L288.455484,326.699458 L288.455484,343.202107 L313.633176,343.202107 L313.633176,333.274043 L337.449913,333.274043 L337.449913,351.982929 L252.487351,351.982929 L252.487351,343.202107 Z M427.000842,343.202107 L427.000842,351.982929 L382.866971,351.982929 L382.866971,343.202107 L391.227131,343.202107 L391.227131,301.371862 L382.866971,301.371862 L382.866971,292.988163 L427.000842,292.988163 L427.000842,301.371862 L418.835104,301.371862 L418.835104,343.202107 L427.000842,343.202107 Z M529.966912,346.11434 C527.374601,348.379421 523.794026,350.12233 519.225078,351.34312 C514.65613,352.563911 509.487788,353.174297 503.719896,353.174297 C501.257201,353.174297 498.85935,353.049278 496.52627,352.799237 C494.19319,352.549195 491.989759,352.196201 489.91591,351.740243 C487.842062,351.284285 485.946463,350.740086 484.229057,350.107628 C482.511651,349.47517 481.037296,348.776536 479.805949,348.011703 C478.056139,346.952704 476.678995,345.812827 475.674474,344.592037 C474.669954,343.371246 473.908474,342.062226 473.390012,340.664935 C472.871549,339.267645 472.547515,337.767419 472.4179,336.164213 C472.288284,334.561006 472.223478,332.847513 472.223478,331.023682 L472.223478,313.506163 C472.223478,306.240254 474.718539,300.790905 479.708738,297.15795 C484.698936,293.524996 492.605365,291.708546 503.428263,291.708546 C508.936923,291.708546 513.975652,292.318932 518.5446,293.539722 C523.113547,294.760513 526.920947,296.562254 529.966912,298.945002 L529.966912,292.988163 L551.839425,292.988163 L551.839425,312.932542 L526.564521,312.932542 L526.564521,311.211677 C526.564521,307.652264 525.560016,305.019515 523.550975,303.31335 C521.541934,301.607185 518.236787,300.754116 513.635436,300.754116 C510.978317,300.754116 508.758684,300.996799 506.976471,301.482174 C505.194257,301.967548 503.768507,302.717661 502.699179,303.732535 C501.629851,304.747409 500.868371,306.019659 500.414717,307.549324 C499.961062,309.078989 499.734238,310.873377 499.734238,312.932542 L499.734238,333.450542 C499.734238,335.274373 499.944861,336.855494 500.366111,338.19395 C500.787362,339.532407 501.500236,340.650223 502.504757,341.54743 C503.509277,342.444637 504.886422,343.113856 506.636231,343.555105 C508.386041,343.996355 510.589472,344.216976 513.246591,344.216976 C517.459096,344.216976 520.731839,343.422739 523.064919,341.834241 C525.397999,340.245743 526.564521,337.907155 526.564521,334.818409 L526.564521,329.920563 L517.232249,329.920563 L517.232249,321.536864 L560.199586,321.536864 L560.199586,329.920563 L553.005959,329.920563 L553.005959,351.982929 L529.966912,351.982929 L529.966912,346.11434 Z M658.791153,310.593931 C658.791153,307.122768 657.559824,304.541497 655.097129,302.850041 C652.634434,301.158584 649.005253,300.312869 644.209478,300.312869 C634.55312,300.312869 629.725014,303.739855 629.725014,310.593931 L629.725014,334.377161 C629.725014,341.231237 634.55312,344.658224 644.209478,344.658224 C649.005253,344.658224 652.634434,343.805154 655.097129,342.098989 C657.559824,340.392824 658.791153,337.818907 658.791153,334.377161 L658.791153,310.593931 Z M686.399125,332.921045 C686.399125,339.686871 682.883357,344.768518 675.851714,348.16614 C668.82007,351.563761 658.272764,353.262546 644.209478,353.262546 C630.146192,353.262546 619.631289,351.563761 612.664454,348.16614 C605.697618,344.768518 602.214253,339.686871 602.214253,332.921045 L602.214253,312.050047 C602.214253,305.284221 605.697618,300.202574 612.664454,296.804952 C619.631289,293.407331 630.146192,291.708546 644.209478,291.708546 C658.143149,291.708546 668.658052,293.407331 675.754502,296.804952 C682.850953,300.202574 686.399125,305.284221 686.399125,312.050047 L686.399125,332.921045 Z" id="SLEIGO" fill="#555555"></path>
                <path d="M33.4461475,374.975617 C33.4461475,374.620256 33.2547929,374.353739 32.8720779,374.176059 C32.489363,373.998378 31.82525,373.909539 30.8797189,373.909539 L8.99753846,373.909539 L8.99753846,379.918338 L22.2349069,379.918338 C23.1354126,379.918338 23.8332941,379.829499 24.3285723,379.651819 C24.8238505,379.474138 25.0714858,379.013791 25.0714858,378.270764 L26.2871625,378.270764 L26.2871625,385.830221 L25.0714858,385.830221 C25.0714858,385.087194 24.8238505,384.610694 24.3285723,384.400708 C23.8332941,384.190722 23.1354126,384.085731 22.2349069,384.085731 L8.99753846,384.085731 L8.99753846,390.772942 L31.5550949,390.772942 C32.2304742,390.772942 32.7820257,390.659875 33.2097659,390.433736 C33.6375061,390.207597 33.8513731,389.900699 33.8513731,389.513033 L35.0670497,389.513033 L35.0670497,396.151786 L33.8513731,396.151786 C33.8513731,395.667203 33.6375061,395.39261 33.2097659,395.327999 C32.7820257,395.263388 32.2304742,395.231083 31.5550949,395.231083 L0.0825760514,395.231083 L0.0825760514,394.358838 C0.397753066,394.358838 0.679156894,394.286152 0.926795976,394.140777 C1.17443506,393.995402 1.29825274,393.777343 1.29825274,393.486593 L1.29825274,371.486637 C1.29825274,371.195887 1.17443506,370.977828 0.926795976,370.832453 C0.679156894,370.687078 0.397753066,370.614392 0.0825760514,370.614392 L0.0825760514,369.742147 L30.8797189,369.742147 C31.82525,369.742147 32.489363,369.637155 32.8720779,369.427169 C33.2547929,369.217183 33.4461475,368.934514 33.4461475,368.579153 L34.6618242,368.579153 L34.6618242,374.975617 L33.4461475,374.975617 Z M66.5733373,394.358838 C67.4288178,394.358838 67.8565516,394.068093 67.8565516,393.486593 L67.8565516,371.486637 C67.8565516,370.905137 67.4288178,370.614392 66.5733373,370.614392 L66.5733373,369.742147 L78.1222659,369.742147 L78.1222659,370.614392 C77.7620636,370.614392 77.5819652,370.775917 77.5819652,371.098972 C77.5819652,371.357416 78.0322113,371.809687 78.9327171,372.455798 L98.3160065,386.896298 L98.3160065,371.486637 C98.3160065,370.905137 97.7306866,370.614392 96.5600291,370.614392 L96.5600291,369.742147 L106.758206,369.742147 L106.758206,370.614392 C105.902725,370.614392 105.474991,370.905137 105.474991,371.486637 L105.474991,393.486593 C105.474991,394.068093 105.902725,394.358838 106.758206,394.358838 L106.758206,395.231083 L95.8171156,395.231083 L95.8171156,394.358838 C96.4024443,394.358838 96.6951043,394.213466 96.6951043,393.922716 C96.6951043,393.696577 96.3349074,393.325069 95.6145028,392.808181 L75.0155366,377.398519 L75.0155366,393.486593 C75.0155366,394.068093 75.5333196,394.358838 76.5689013,394.358838 L76.5689013,395.231083 L66.5733373,395.231083 L66.5733373,394.358838 Z M158.525772,393.486593 C158.525772,394.068093 159.021042,394.358838 160.011599,394.358838 L160.011599,395.231083 L149.610809,395.231083 L149.610809,394.358838 C149.925986,394.358838 150.20739,394.286152 150.455029,394.140777 C150.702668,393.995402 150.826486,393.777343 150.826486,393.486593 L150.826486,374.200288 L139.682783,374.200288 C139.277555,374.200288 138.88359,374.28105 138.500875,374.442578 C138.11816,374.604106 137.926805,374.911004 137.926805,375.363281 L136.711129,375.363281 L136.711129,368.579153 L137.926805,368.579153 C137.926805,369.031431 138.11816,369.338329 138.500875,369.499856 C138.88359,369.661384 139.277555,369.742147 139.682783,369.742147 L169.669475,369.742147 C170.074702,369.742147 170.468668,369.661384 170.851382,369.499856 C171.234097,369.338329 171.425452,369.031431 171.425452,368.579153 L172.641129,368.579153 L172.641129,375.363281 L171.425452,375.363281 C171.425452,374.911004 171.234097,374.604106 170.851382,374.442578 C170.468668,374.28105 170.074702,374.200288 169.669475,374.200288 L158.525772,374.200288 L158.525772,393.486593 Z M235.619935,374.975617 C235.619935,374.620256 235.428581,374.353739 235.045866,374.176059 C234.663151,373.998378 233.999038,373.909539 233.053507,373.909539 L211.171326,373.909539 L211.171326,379.918338 L224.408695,379.918338 C225.3092,379.918338 226.007082,379.829499 226.50236,379.651819 C226.997638,379.474138 227.245273,379.013791 227.245273,378.270764 L228.46095,378.270764 L228.46095,385.830221 L227.245273,385.830221 C227.245273,385.087194 226.997638,384.610694 226.50236,384.400708 C226.007082,384.190722 225.3092,384.085731 224.408695,384.085731 L211.171326,384.085731 L211.171326,390.772942 L233.728883,390.772942 C234.404262,390.772942 234.955813,390.659875 235.383554,390.433736 C235.811294,390.207597 236.025161,389.900699 236.025161,389.513033 L237.240837,389.513033 L237.240837,396.151786 L236.025161,396.151786 C236.025161,395.667203 235.811294,395.39261 235.383554,395.327999 C234.955813,395.263388 234.404262,395.231083 233.728883,395.231083 L202.256364,395.231083 L202.256364,394.358838 C202.571541,394.358838 202.852945,394.286152 203.100584,394.140777 C203.348223,393.995402 203.47204,393.777343 203.47204,393.486593 L203.47204,371.486637 C203.47204,371.195887 203.348223,370.977828 203.100584,370.832453 C202.852945,370.687078 202.571541,370.614392 202.256364,370.614392 L202.256364,369.742147 L233.053507,369.742147 C233.999038,369.742147 234.663151,369.637155 235.045866,369.427169 C235.428581,369.217183 235.619935,368.934514 235.619935,368.579153 L236.835612,368.579153 L236.835612,374.975617 L235.619935,374.975617 Z M289.346091,381.081331 C290.967002,381.081331 292.31774,380.992493 293.398347,380.814812 C294.478954,380.637132 295.334421,380.386768 295.964775,380.063712 C296.595129,379.740657 297.045376,379.361073 297.315527,378.924948 C297.585679,378.488823 297.720753,378.012324 297.720753,377.495435 C297.720753,376.978547 297.585679,376.502047 297.315527,376.065923 C297.045376,375.629798 296.595129,375.250214 295.964775,374.927159 C295.334421,374.604103 294.478954,374.353739 293.398347,374.176059 C292.31774,373.998378 290.967002,373.909539 289.346091,373.909539 L277.662087,373.909539 L277.662087,381.081331 L289.346091,381.081331 Z M291.102069,369.742147 C293.263282,369.742147 295.221853,369.879443 296.977839,370.15404 C298.733826,370.428637 300.24215,370.864755 301.502858,371.462408 C302.763566,372.06006 303.731595,372.835381 304.406975,373.788394 C305.082354,374.741407 305.420039,375.912465 305.420039,377.301603 C305.420039,379.433768 304.542059,381.065173 302.786072,382.195867 C301.030086,383.32656 298.666294,384.085729 295.694625,384.473395 L304.677125,393.680426 C304.992302,394.003481 305.363755,394.197311 305.791495,394.261922 C306.219236,394.326533 306.613201,394.358838 306.973403,394.358838 L306.973403,395.231083 L294.343873,395.231083 L294.343873,394.358838 C294.749101,394.358838 295.098041,394.310381 295.390706,394.213464 C295.68337,394.116548 295.8297,393.987327 295.8297,393.8258 C295.8297,393.664272 295.739651,393.478518 295.55955,393.268532 C295.379449,393.058546 295.109301,392.775877 294.749099,392.420516 L287.319963,384.86106 L277.662087,384.86106 L277.662087,393.486593 C277.662087,393.777343 277.808417,393.995402 278.101082,394.140777 C278.393746,394.286152 278.922785,394.358838 279.688215,394.358838 L279.688215,395.231083 L268.004211,395.231083 L268.004211,394.358838 C269.309945,394.358838 269.962802,394.068093 269.962802,393.486593 L269.962802,371.486637 C269.962802,370.905137 269.309945,370.614392 268.004211,370.614392 L268.004211,369.742147 L291.102069,369.742147 Z M362.185386,380.402919 C363.671221,380.402919 364.943166,380.192936 366.00126,379.772964 C367.059355,379.352992 367.588394,378.529213 367.588394,377.301603 C367.588394,376.073993 367.059355,375.250214 366.00126,374.830242 C364.943166,374.410271 363.671221,374.200288 362.185386,374.200288 L347.799879,374.200288 L347.799879,380.402919 L362.185386,380.402919 Z M337.601702,395.231083 L337.601702,394.358838 C339.267638,394.358838 340.100593,394.068093 340.100593,393.486593 L340.100593,371.486637 C340.100593,370.905137 339.267638,370.614392 337.601702,370.614392 L337.601702,369.742147 L361.374935,369.742147 C365.697363,369.742147 369.096721,370.315561 371.573112,371.462408 C374.049503,372.609254 375.28768,374.555633 375.28768,377.301603 C375.28768,380.047573 374.049503,381.993952 371.573112,383.140799 C369.096721,384.287645 365.697363,384.86106 361.374935,384.86106 L347.799879,384.86106 L347.799879,393.486593 C347.799879,394.068093 348.520273,394.358838 349.961082,394.358838 L349.961082,395.231083 L337.601702,395.231083 Z M425.366805,381.081331 C426.987716,381.081331 428.338454,380.992493 429.419061,380.814812 C430.499668,380.637132 431.355136,380.386768 431.98549,380.063712 C432.615844,379.740657 433.06609,379.361073 433.336242,378.924948 C433.606393,378.488823 433.741467,378.012324 433.741467,377.495435 C433.741467,376.978547 433.606393,376.502047 433.336242,376.065923 C433.06609,375.629798 432.615844,375.250214 431.98549,374.927159 C431.355136,374.604103 430.499668,374.353739 429.419061,374.176059 C428.338454,373.998378 426.987716,373.909539 425.366805,373.909539 L413.682802,373.909539 L413.682802,381.081331 L425.366805,381.081331 Z M427.122783,369.742147 C429.283997,369.742147 431.242567,369.879443 432.998554,370.15404 C434.75454,370.428637 436.262864,370.864755 437.523572,371.462408 C438.78428,372.06006 439.75231,372.835381 440.427689,373.788394 C441.103068,374.741407 441.440753,375.912465 441.440753,377.301603 C441.440753,379.433768 440.562773,381.065173 438.806787,382.195867 C437.0508,383.32656 434.687008,384.085729 431.715339,384.473395 L440.697839,393.680426 C441.013016,394.003481 441.384469,394.197311 441.81221,394.261922 C442.23995,394.326533 442.633915,394.358838 442.994118,394.358838 L442.994118,395.231083 L430.364587,395.231083 L430.364587,394.358838 C430.769815,394.358838 431.118756,394.310381 431.41142,394.213464 C431.704085,394.116548 431.850415,393.987327 431.850415,393.8258 C431.850415,393.664272 431.760365,393.478518 431.580264,393.268532 C431.400163,393.058546 431.130015,392.775877 430.769813,392.420516 L423.340678,384.86106 L413.682802,384.86106 L413.682802,393.486593 C413.682802,393.777343 413.829132,393.995402 414.121796,394.140777 C414.41446,394.286152 414.9435,394.358838 415.70893,394.358838 L415.70893,395.231083 L404.024926,395.231083 L404.024926,394.358838 C405.330659,394.358838 405.983516,394.068093 405.983516,393.486593 L405.983516,371.486637 C405.983516,370.905137 405.330659,370.614392 404.024926,370.614392 L404.024926,369.742147 L427.122783,369.742147 Z M474.09518,394.358838 C475.265837,394.358838 475.851157,394.068093 475.851157,393.486593 L475.851157,371.486637 C475.851157,370.905137 475.265837,370.614392 474.09518,370.614392 L474.09518,369.742147 L485.30642,369.742147 L485.30642,370.614392 C484.135763,370.614392 483.550443,370.905137 483.550443,371.486637 L483.550443,393.486593 C483.550443,394.068093 484.135763,394.358838 485.30642,394.358838 L485.30642,395.231083 L474.09518,395.231083 L474.09518,394.358838 Z M520.527275,387.235504 L521.202651,387.477795 C521.202651,387.768544 521.292701,388.026985 521.472802,388.253123 C521.787979,388.64079 522.407067,389.020374 523.330086,389.391888 C524.253104,389.763401 525.311182,390.094528 526.504353,390.385278 C527.697523,390.676028 528.946956,390.910239 530.252689,391.08792 C531.558422,391.2656 532.729062,391.354439 533.764644,391.354439 C534.530074,391.354439 535.520615,391.314058 536.736298,391.233294 C537.951981,391.15253 539.145133,390.982928 540.31579,390.724484 C541.486448,390.46604 542.499502,390.110684 543.354982,389.658407 C544.210463,389.20613 544.638197,388.608486 544.638197,387.865459 C544.638197,387.122432 544.244231,386.573246 543.456289,386.217885 C542.668346,385.862524 541.63278,385.604084 540.349559,385.442556 C539.066339,385.281029 537.603039,385.176037 535.959616,385.127579 C534.316193,385.079121 532.639026,385.006434 530.928065,384.909518 C529.217104,384.812601 527.539937,384.651076 525.896514,384.424937 C524.253091,384.198798 522.789791,383.819214 521.506571,383.286173 C520.22335,382.753132 519.187784,382.026268 518.399841,381.10556 C517.611899,380.184853 517.217933,378.98149 517.217933,377.495435 C517.217933,376.493964 517.544362,375.50866 518.197228,374.539494 C518.850095,373.570328 519.851893,372.714244 521.202651,371.971217 C522.55341,371.22819 524.264345,370.62247 526.335509,370.15404 C528.406672,369.68561 530.838001,369.451398 533.629569,369.451398 C536.015909,369.451398 538.087041,369.580619 539.843027,369.839063 C541.599014,370.097507 543.118594,370.3721 544.401815,370.66285 C545.685036,370.9536 546.765626,371.228192 547.643619,371.486637 C548.521613,371.745081 549.253263,371.874301 549.838591,371.874301 C550.468945,371.874301 550.919191,371.777386 551.189343,371.583553 L551.999794,371.971217 L547.3397,378.028474 L546.664324,377.834642 C546.574274,377.382364 546.394175,377.010856 546.124024,376.720107 C545.763821,376.33244 545.167245,375.952856 544.334277,375.581342 C543.50131,375.209829 542.522024,374.878702 541.396392,374.587952 C540.27076,374.297202 539.055095,374.062991 537.749362,373.88531 C536.443629,373.70763 535.137915,373.618791 533.832181,373.618791 C532.841625,373.618791 531.817315,373.675325 530.759221,373.788394 C529.701127,373.901464 528.744354,374.071065 527.888873,374.297204 C527.033393,374.523343 526.324255,374.822164 525.761439,375.193678 C525.198623,375.565191 524.917219,376.025538 524.917219,376.574732 C524.917219,377.350065 525.311184,377.931556 526.099127,378.319222 C526.887069,378.706889 527.922636,378.997634 529.205856,379.191467 C530.489077,379.3853 531.952377,379.514521 533.5958,379.579132 C535.239223,379.643743 536.91639,379.724505 538.627351,379.821422 C540.338312,379.918339 542.015478,380.08794 543.658901,380.330232 C545.302324,380.572523 546.765624,380.960184 548.048845,381.493225 C549.332066,382.026266 550.367632,382.745053 551.155574,383.649608 C551.943517,384.554163 552.337482,385.733297 552.337482,387.187046 C552.337482,388.866934 551.718394,390.239898 550.480198,391.305981 C549.242003,392.372063 547.69991,393.211995 545.853873,393.8258 C544.007836,394.439605 542.015497,394.851494 539.876796,395.06148 C537.738095,395.271466 535.745756,395.376457 533.899719,395.376457 C531.333278,395.376457 529.183352,395.271466 527.449879,395.06148 C525.716405,394.851494 524.275618,394.593054 523.127473,394.286151 C521.979328,393.979249 521.06758,393.704656 520.3922,393.462364 C519.716821,393.220073 519.131501,393.098929 518.636223,393.098929 C518.321046,393.098929 518.028386,393.228149 517.758234,393.486593 L516.812708,393.098929 L520.527275,387.235504 Z M617.409954,374.975617 C617.409954,374.620256 617.218599,374.353739 616.835884,374.176059 C616.45317,373.998378 615.789057,373.909539 614.843525,373.909539 L592.961345,373.909539 L592.961345,379.918338 L606.198713,379.918338 C607.099219,379.918338 607.797101,379.829499 608.292379,379.651819 C608.787657,379.474138 609.035292,379.013791 609.035292,378.270764 L610.250969,378.270764 L610.250969,385.830221 L609.035292,385.830221 C609.035292,385.087194 608.787657,384.610694 608.292379,384.400708 C607.797101,384.190722 607.099219,384.085731 606.198713,384.085731 L592.961345,384.085731 L592.961345,390.772942 L615.518901,390.772942 C616.194281,390.772942 616.745832,390.659875 617.173572,390.433736 C617.601313,390.207597 617.81518,389.900699 617.81518,389.513033 L619.030856,389.513033 L619.030856,396.151786 L617.81518,396.151786 C617.81518,395.667203 617.601313,395.39261 617.173572,395.327999 C616.745832,395.263388 616.194281,395.231083 615.518901,395.231083 L584.046383,395.231083 L584.046383,394.358838 C584.36156,394.358838 584.642963,394.286152 584.890603,394.140777 C585.138242,393.995402 585.262059,393.777343 585.262059,393.486593 L585.262059,371.486637 C585.262059,371.195887 585.138242,370.977828 584.890603,370.832453 C584.642963,370.687078 584.36156,370.614392 584.046383,370.614392 L584.046383,369.742147 L614.843525,369.742147 C615.789057,369.742147 616.45317,369.637155 616.835884,369.427169 C617.218599,369.217183 617.409954,368.934514 617.409954,368.579153 L618.625631,368.579153 L618.625631,374.975617 L617.409954,374.975617 Z M652.833422,387.235504 L653.508798,387.477795 C653.508798,387.768544 653.598847,388.026985 653.778948,388.253123 C654.094125,388.64079 654.713214,389.020374 655.636232,389.391888 C656.559251,389.763401 657.617329,390.094528 658.810499,390.385278 C660.003669,390.676028 661.253102,390.910239 662.558836,391.08792 C663.864569,391.2656 665.035209,391.354439 666.070791,391.354439 C666.83622,391.354439 667.826762,391.314058 669.042445,391.233294 C670.258127,391.15253 671.45128,390.982928 672.621937,390.724484 C673.792595,390.46604 674.805648,390.110684 675.661129,389.658407 C676.516609,389.20613 676.944343,388.608486 676.944343,387.865459 C676.944343,387.122432 676.550378,386.573246 675.762435,386.217885 C674.974493,385.862524 673.938927,385.604084 672.655706,385.442556 C671.372485,385.281029 669.909185,385.176037 668.265762,385.127579 C666.622339,385.079121 664.945173,385.006434 663.234212,384.909518 C661.523251,384.812601 659.846084,384.651076 658.202661,384.424937 C656.559238,384.198798 655.095938,383.819214 653.812717,383.286173 C652.529497,382.753132 651.49393,382.026268 650.705988,381.10556 C649.918045,380.184853 649.52408,378.98149 649.52408,377.495435 C649.52408,376.493964 649.850508,375.50866 650.503375,374.539494 C651.156242,373.570328 652.158039,372.714244 653.508798,371.971217 C654.859557,371.22819 656.570492,370.62247 658.641655,370.15404 C660.712818,369.68561 663.144147,369.451398 665.935715,369.451398 C668.322056,369.451398 670.393188,369.580619 672.149174,369.839063 C673.90516,370.097507 675.424741,370.3721 676.707962,370.66285 C677.991182,370.9536 679.071773,371.228192 679.949766,371.486637 C680.827759,371.745081 681.559409,371.874301 682.144738,371.874301 C682.775092,371.874301 683.225338,371.777386 683.49549,371.583553 L684.305941,371.971217 L679.645847,378.028474 L678.970471,377.834642 C678.88042,377.382364 678.700322,377.010856 678.43017,376.720107 C678.069968,376.33244 677.473392,375.952856 676.640424,375.581342 C675.807456,375.209829 674.828171,374.878702 673.702539,374.587952 C672.576906,374.297202 671.361242,374.062991 670.055509,373.88531 C668.749775,373.70763 667.444061,373.618791 666.138328,373.618791 C665.147772,373.618791 664.123462,373.675325 663.065368,373.788394 C662.007273,373.901464 661.0505,374.071065 660.19502,374.297204 C659.339539,374.523343 658.630402,374.822164 658.067586,375.193678 C657.50477,375.565191 657.223366,376.025538 657.223366,376.574732 C657.223366,377.350065 657.617331,377.931556 658.405274,378.319222 C659.193216,378.706889 660.228782,378.997634 661.512003,379.191467 C662.795224,379.3853 664.258524,379.514521 665.901947,379.579132 C667.54537,379.643743 669.222536,379.724505 670.933497,379.821422 C672.644458,379.918339 674.321625,380.08794 675.965048,380.330232 C677.608471,380.572523 679.071771,380.960184 680.354992,381.493225 C681.638212,382.026266 682.673778,382.745053 683.461721,383.649608 C684.249664,384.554163 684.643629,385.733297 684.643629,387.187046 C684.643629,388.866934 684.02454,390.239898 682.786345,391.305981 C681.54815,392.372063 680.006057,393.211995 678.16002,393.8258 C676.313983,394.439605 674.321644,394.851494 672.182943,395.06148 C670.044242,395.271466 668.051903,395.376457 666.205866,395.376457 C663.639424,395.376457 661.489499,395.271466 659.756025,395.06148 C658.022552,394.851494 656.581764,394.593054 655.433619,394.286151 C654.285475,393.979249 653.373726,393.704656 652.698347,393.462364 C652.022968,393.220073 651.437648,393.098929 650.942369,393.098929 C650.627192,393.098929 650.334532,393.228149 650.064381,393.486593 L649.118854,393.098929 L652.833422,387.235504 Z" id="ENTERPRISES" fill="#555555"></path>
            </g>
        </g>
    </g>
</svg>