<?xml version="1.0" encoding="UTF-8"?>
<svg width="500px" height="500px" viewBox="0 0 500 500" version="1.1" xmlns="http://www.w3.org/2000/svg" xmlns:xlink="http://www.w3.org/1999/xlink">
    <!-- Generator: Sketch 42 (36781) - http://www.bohemiancoding.com/sketch -->
    <title>logo</title>
    <desc>Created with Sketch.</desc>
    <defs></defs>
    <g id="Page-1" stroke="none" stroke-width="1" fill="none" fill-rule="evenodd">
        <g id="Artboard">
            <g id="logo">
                <path d="M411.655365,215 C410.768715,211.095944 409.779863,207.219679 408.631538,203.377451 C408.137417,201.715407 407.620693,200.058912 407.07927,198.409609 L383.821775,215 L110.197133,215 L90.2730024,200.787415 C89.4501815,203.394224 88.6859605,206.017404 87.9967677,208.663003 C87.450097,210.769214 86.9327814,212.880511 86.4543114,215 L53.2386212,215 C60.4122522,176.008367 79.3595053,139.096014 108.583838,110.734822 C135.780831,84.3474723 170.921256,65.2014904 208.539373,57.9035497 C249.038528,50.047959 290.294984,54.1778014 328.258825,70.0263748 C363.349861,84.6545839 393.52667,109.829651 414.747568,140.831756 C430.049014,163.177229 440.285963,188.58448 445.100432,215 L411.655365,215 Z M53.1702475,285 L86.7096073,285 C88.7644783,293.769316 91.4164775,302.393725 94.7877845,310.745273 C95.1582036,311.666608 97.1584667,316.305609 95.2075928,311.852491 C95.6274011,312.830399 96.0636725,313.808307 96.516407,314.786215 C97.4136443,316.733949 98.3355763,318.689764 99.3068975,320.580925 C101.233077,324.411738 103.266266,328.177895 105.472318,331.847071 C107.851231,335.823357 110.353618,339.694579 113.028867,343.468819 C114.255366,345.206424 115.514791,346.944029 116.807142,348.633142 C117.358655,349.35243 119.712874,352.261908 116.856531,348.722043 C117.523285,349.562559 118.19004,350.378829 118.873257,351.203181 C124.544785,358.032373 130.669048,364.481716 137.295434,370.397655 C139.980504,372.794822 142.720453,375.133212 145.538582,377.38613 L176.111722,285 L317.905921,285 L349.293289,379.866086 C349.840984,379.466539 350.386078,379.063635 350.928474,378.657339 C352.344298,377.606695 352.056194,377.784496 350.146478,379.247317 C350.706222,378.794731 351.28243,378.382555 351.833943,377.938052 C352.681791,377.267255 353.504944,376.604541 354.33633,375.925663 C355.990868,374.567906 357.637175,373.202068 359.225862,371.771575 C362.43616,368.942915 365.555912,366.041519 368.535728,362.994649 C371.787185,359.697241 374.9234,356.327095 377.894984,352.795312 C378.668748,351.849732 383.039694,346.402543 380.026952,350.281847 C381.327534,348.600815 382.636348,346.903619 383.887542,345.157933 C389.081641,337.932729 393.806542,330.38425 397.856458,322.472086 C399.000641,320.249568 400.111898,318.010886 401.157303,315.739877 C401.618269,314.770051 402.054541,313.792143 402.490812,312.814235 C404.021878,309.339025 401.074988,316.257117 402.523738,312.733416 C404.161814,308.740966 405.709342,304.700024 407.042851,300.594427 C408.727667,295.464056 410.200983,290.259726 411.424986,285 L444.822839,285 C441.995004,299.770506 437.457326,314.202196 431.325881,328.137486 C400.325918,398.676165 326.061005,445.696562 247.894344,444.985357 C208.926255,444.645918 169.744147,433.250462 137.567074,411.477868 C104.961962,389.406244 79.9545576,359.18 64.6932908,323.312602 C59.4130235,310.894401 55.5904055,298.043977 53.1702475,285 Z M404.712311,191.682966 C404.509892,191.145818 404.304467,190.6097 404.095961,190.074671 C403.65969,188.95129 400.902126,182.42921 402.894157,186.971228 C402.046309,184.999249 401.149072,183.043433 400.218908,181.111863 C396.341855,173.11888 391.929752,165.35219 386.900284,158.005758 C385.509154,155.95296 384.085099,153.924407 382.595191,151.928182 C381.961363,151.079584 381.319303,150.222904 380.669012,149.382388 C378.372413,146.408255 382.96561,152.219129 380.603159,149.309651 C377.903216,146.004161 375.13742,142.771408 372.223456,139.667964 C366.148583,133.194376 359.653901,127.116799 352.673559,121.572627 C351.932721,120.98265 347.915732,117.951944 351.792785,120.829094 C350.944937,120.190625 350.080626,119.544075 349.224546,118.929851 C347.462997,117.669078 345.717912,116.43255 343.931669,115.244513 C340.367414,112.860357 336.720844,110.565102 332.991958,108.423403 C328.933811,106.103902 324.793349,103.90563 320.562339,101.893241 C318.586771,100.963825 316.619434,100.050572 314.627402,99.1938922 C313.763091,98.8221255 310.223531,97.3916321 314.536856,99.137319 C313.532608,98.7413067 312.536592,98.3210487 311.50765,97.9331183 C302.955085,94.6680374 294.163805,91.9444427 285.191432,89.9886269 C280.458299,88.9541458 275.684008,88.0570568 270.876791,87.3943423 C276.046196,88.11363 268.646045,87.1599677 267.394852,87.0387395 C265.122948,86.8205286 262.842813,86.6346453 260.570909,86.4972533 C257.755458,86.3353497 254.935006,86.2288589 252.112921,86.1823269 L287.018832,191.682966 L404.712311,191.682966 Z M241.878329,86.2844246 C238.53336,86.4089902 235.191817,86.625575 231.859313,86.9417569 C230.352942,87.0872308 228.854803,87.2246228 227.348432,87.4105061 C226.385342,87.5236525 222.450668,88.0974662 227.241422,87.4105061 C225.010676,87.7256996 222.788161,88.0732206 220.58211,88.4692328 C216.202933,89.2693393 211.840219,90.1825921 207.526894,91.2898102 C202.900771,92.4940108 198.315806,93.8194397 193.796693,95.3630794 C191.722346,96.0581214 189.664462,96.7854909 187.61481,97.5694336 C186.602331,97.9492821 185.581621,98.3452944 184.569142,98.7574704 C180.996656,100.196046 188.009924,97.2704039 184.478595,98.789798 C176.19767,102.345827 168.15546,106.459505 160.508364,111.195489 C156.557227,113.6443 152.671942,116.198175 148.918362,118.946015 C148.062282,119.56832 147.197971,120.198707 146.341891,120.845258 C149.996693,118.073172 146.992182,120.368427 146.28427,120.934159 C144.605037,122.259587 142.942267,123.60118 141.320655,124.991264 C134.554332,130.761729 128.166661,136.968615 122.322271,143.644251 C120.692427,145.519248 119.070814,147.402327 117.523285,149.341979 C115.169066,152.275703 119.737569,146.424419 117.457433,149.414716 C116.807142,150.263314 116.165082,151.103829 115.531254,151.960509 C112.995941,155.387228 110.551175,158.886683 108.279271,162.483121 C103.504981,170.023519 99.2328137,177.871027 95.6438642,186.017566 C94.9359522,187.642024 95.0676567,187.326831 96.0225148,185.120477 C95.7344111,185.783191 95.4627704,186.445906 95.1911298,187.10862 C94.7877845,188.110774 94.3844393,189.104845 93.9975571,190.115081 C93.7995922,190.637569 93.6021778,191.160058 93.4063104,191.682966 L206.991845,191.682966 L241.878329,86.2844246 Z M150.748153,381.260146 C152.47079,382.466323 154.201931,383.656626 155.972788,384.815735 C163.48818,389.705274 171.341064,394.134146 179.514979,397.892222 C180.823793,398.498363 182.140839,399.104504 183.474348,399.678318 C184.322196,400.042003 187.869988,401.48866 183.548432,399.726809 C185.573389,400.567325 187.606579,401.351268 189.656231,402.094801 C193.788462,403.598032 197.953619,404.988116 202.184628,406.176152 C206.802519,407.477336 211.478031,408.657291 216.18647,409.602871 C218.38429,410.015047 220.58211,410.443387 222.788161,410.807072 C223.891187,410.984873 225.002444,411.154593 226.113701,411.324312 C230.056607,411.881962 222.253111,410.855563 226.21248,411.348558 C235.70344,412.480022 245.276716,412.964935 254.833529,412.649741 C259.788913,412.463858 264.719603,412.148664 269.658524,411.607178 C270.769781,411.469786 271.88927,411.35664 273.016991,411.18692 C268.218005,411.817307 272.169142,411.300067 273.115769,411.138429 C275.338284,410.790908 277.536104,410.427223 279.742155,409.990801 C288.772149,408.237033 297.711597,405.885205 306.395867,402.797925 C308.807707,401.949327 311.203084,401.052238 313.549071,400.11474 C317.121558,398.668083 310.124753,401.577561 313.64785,400.058167 C314.643865,399.629827 315.639881,399.217651 316.635897,398.773147 C320.562339,396.978969 324.464087,395.09589 328.28352,393.043092 C334.11599,389.886365 339.812808,386.449946 345.283485,382.70093 L247.01357,312.596024 L150.748153,381.260146 Z" id="Combined-Shape" fill-opacity="0.0599999987" fill="#606060" fill-rule="nonzero"></path>
                <path d="M51,254.543223 L65.1630612,254.543223 L65.1630612,254.849587 C65.1630612,257.215403 65.8428814,258.964208 67.202542,260.096056 C68.5622027,261.227903 70.7905021,261.793818 73.8875069,261.793818 C76.2669131,261.793818 78.1741863,261.457673 79.6093837,260.785373 C81.044581,260.113073 81.762169,259.215267 81.762169,258.09193 C81.762169,257.377079 81.4977945,256.743084 80.9690375,256.189925 C80.4402806,255.636767 79.6754829,255.121912 78.6746216,254.645344 C77.6737603,254.168777 76.4368653,253.704982 74.9638996,253.253945 C73.4909338,252.802908 71.8102674,252.305073 69.9218498,251.760425 C68.6377258,251.402999 67.3630631,251.054089 66.0978233,250.713684 C64.8325835,250.373279 63.5956885,250.020113 62.3871012,249.654178 C61.178514,249.288242 60.0077126,248.892527 58.874662,248.46702 C57.7416115,248.041514 56.7029974,247.556444 55.7587886,247.011795 C54.3613595,246.194823 53.3605132,245.279998 52.7562196,244.267292 C52.151926,243.254586 51.8497837,242.109991 51.8497837,240.833471 C51.8497837,239.505891 52.3029971,238.297471 53.2094375,237.208174 C54.115878,236.118877 55.343331,235.187032 56.8918335,234.41261 C58.4403359,233.638188 60.2720735,233.042488 62.3871012,232.625491 C64.5021289,232.208495 66.78708,232 69.2420228,232 C72.4145644,232 75.1149611,232.28934 77.3432939,232.868029 C79.5716266,233.446718 81.6299709,234.391328 83.5183886,235.701888 L83.5183886,232.740378 L96.1518392,232.740378 L96.1518392,243.284377 L82.2153869,243.284377 L82.2153869,242.978014 C82.2153869,240.901542 81.6299862,239.369741 80.4591673,238.382566 C79.2883484,237.395391 77.2866558,236.901811 74.4540294,236.901811 C72.1879282,236.901811 70.4034004,237.203916 69.1003922,237.808135 C67.7973841,238.412354 67.1458898,239.21655 67.1458898,240.220745 C67.1458898,240.969637 67.5235676,241.616397 68.2789347,242.161045 C69.0343017,242.705694 70.0823578,243.212039 71.4231343,243.680096 C72.7639108,244.148153 74.3595997,244.620458 76.210249,245.097026 C78.0608982,245.573593 80.1003586,246.101213 82.3286914,246.679902 C84.9347077,247.360712 87.2007748,248.041513 89.1269608,248.722323 C91.0531468,249.403134 92.6582776,250.152014 93.9424016,250.968986 C95.2265256,251.785959 96.1896041,252.713549 96.8316661,253.751785 C97.4737281,254.790021 97.7947543,256.006952 97.7947543,257.402613 C97.7947543,260.636463 96.1612975,263.091598 92.8943351,264.768094 C89.6273726,266.44459 84.8403058,267.282825 78.532991,267.282825 C72.0368344,267.282825 67.2025579,266.116955 64.0300163,263.785179 L64.0300163,266.874341 L51,266.874341 L51,254.543223 Z M123.526204,261.793818 L128.398297,261.793818 L128.398297,237.591128 L123.526204,237.591128 L123.526204,232.740378 L151.342456,232.740378 L151.342456,237.591128 L144.487534,237.591128 L144.487534,261.793818 L157.404246,261.793818 L157.404246,254.798526 L172.360439,254.798526 L172.360439,266.874341 L123.526204,266.874341 L123.526204,261.793818 Z M197.072148,261.793818 L201.944241,261.793818 L201.944241,237.591128 L197.072148,237.591128 L197.072148,232.740378 L246.58621,232.740378 L246.58621,242.926953 L232.70641,242.926953 L232.70641,237.591128 L218.033479,237.591128 L218.033479,246.577781 L233.839455,246.577781 L233.839455,252.2455 L218.033479,252.2455 L218.033479,261.793818 L232.70641,261.793818 L232.70641,256.049509 L246.58621,256.049509 L246.58621,266.874341 L197.072148,266.874341 L197.072148,261.793818 Z M298.774258,261.793818 L298.774258,266.874341 L273.054139,266.874341 L273.054139,261.793818 L277.926232,261.793818 L277.926232,237.591128 L273.054139,237.591128 L273.054139,232.740378 L298.774258,232.740378 L298.774258,237.591128 L294.01547,237.591128 L294.01547,261.793818 L298.774258,261.793818 Z M358.780316,263.478816 C357.269582,264.789376 355.182912,265.797811 352.520243,266.504152 C349.857574,267.210493 346.845593,267.563658 343.48421,267.563658 C342.049012,267.563658 340.651604,267.491323 339.291944,267.346651 C337.932283,267.201979 336.648178,266.997739 335.439591,266.733925 C334.231004,266.470111 333.126296,266.15524 332.125435,265.789305 C331.124573,265.423369 330.265356,265.019144 329.547758,264.576617 C328.528012,263.963888 327.725447,263.304363 327.140037,262.598022 C326.554628,261.891681 326.110856,261.134291 325.808709,260.325828 C325.506563,259.517366 325.317724,258.649346 325.242187,257.721741 C325.16665,256.794137 325.128882,255.802722 325.128882,254.747465 L325.128882,244.611951 C325.128882,240.407946 326.582942,237.25499 329.491105,235.152988 C332.399268,233.050985 337.006938,232 343.314253,232 C346.524563,232 349.461008,232.353165 352.123677,233.059506 C354.786346,233.765847 357.005203,234.808322 358.780316,236.186963 L358.780316,232.740378 L371.527071,232.740378 L371.527071,244.280057 L356.797487,244.280057 L356.797487,243.284377 C356.797487,241.224925 356.212087,239.701635 355.041268,238.71446 C353.870449,237.727284 351.944292,237.233704 349.262739,237.233704 C347.714236,237.233704 346.42069,237.374119 345.38206,237.654954 C344.34343,237.935788 343.512539,238.369798 342.889361,238.956997 C342.266183,239.544196 341.822412,240.280311 341.558033,241.165365 C341.293655,242.050418 341.161468,243.088639 341.161468,244.280057 L341.161468,256.15163 C341.161468,257.206886 341.284213,258.121712 341.529707,258.896133 C341.775202,259.670555 342.190647,260.317316 342.776057,260.836434 C343.361466,261.355551 344.164032,261.742757 345.183777,261.998061 C346.203523,262.253364 347.487627,262.381015 349.03613,262.381015 C351.491073,262.381015 353.398346,261.921474 354.758007,261.00238 C356.117667,260.083286 356.797487,258.730196 356.797487,256.943068 L356.797487,254.109209 L351.358872,254.109209 L351.358872,249.258459 L376.399164,249.258459 L376.399164,254.109209 L372.206898,254.109209 L372.206898,266.874341 L358.780316,266.874341 L358.780316,263.478816 Z M433.855871,242.926953 C433.855871,240.918562 433.138283,239.425057 431.703085,238.446392 C430.267888,237.467727 428.152892,236.978402 425.358034,236.978402 C419.73055,236.978402 416.91685,238.961232 416.91685,242.926953 L416.91685,256.687766 C416.91685,260.653486 419.73055,262.636317 425.358034,262.636317 C428.152892,262.636317 430.267888,262.142737 431.703085,261.155562 C433.138283,260.168387 433.855871,258.679136 433.855871,256.687766 L433.855871,242.926953 Z M449.945108,255.845267 C449.945108,259.759927 447.896206,262.700133 443.79834,264.665973 C439.700474,266.631813 433.553766,267.614719 425.358034,267.614719 C417.162302,267.614719 411.034478,266.631813 406.974381,264.665973 C402.914283,262.700133 400.884264,259.759927 400.884264,255.845267 L400.884264,243.769452 C400.884264,239.854792 402.914283,236.914586 406.974381,234.948746 C411.034478,232.982905 417.162302,232 425.358034,232 C433.47823,232 439.606053,232.982905 443.741688,234.948746 C447.877322,236.914586 449.945108,239.854792 449.945108,243.769452 L449.945108,255.845267 Z" id="SLEIGO" fill-opacity="0.0599999987" fill="#555555"></path>
                <rect id="Rectangle-12" x="0" y="0" width="500" height="500"></rect>
            </g>
        </g>
    </g>
</svg>